<?xml version="1.0" encoding="utf-8"?>
<!-- Generator: Adobe Illustrator 25.3.1, SVG Export Plug-In . SVG Version: 6.00 Build 0)  -->
<svg version="1.1" id="Слой_1" xmlns="http://www.w3.org/2000/svg" xmlns:xlink="http://www.w3.org/1999/xlink" x="0px" y="0px"
	 viewBox="0 0 800 800" style="enable-background:new 0 0 800 800;" xml:space="preserve">
<style type="text/css">
	.st0{fill:url(#SVGID_1_);stroke:url(#SVGID_2_);stroke-miterlimit:10;}
</style>
<linearGradient id="SVGID_1_" gradientUnits="userSpaceOnUse" x1="67.63" y1="384.0027" x2="732.36" y2="384.0027">
	<stop  offset="0" style="stop-color:#FFF5E3"/>
	<stop  offset="0.5" style="stop-color:#FDE4D7"/>
	<stop  offset="0.5854" style="stop-color:#F5E0D8"/>
	<stop  offset="0.7207" style="stop-color:#DED4D9"/>
	<stop  offset="0.8879" style="stop-color:#B9C1DB"/>
	<stop  offset="1" style="stop-color:#9CB2DD"/>
</linearGradient>
<linearGradient id="SVGID_2_" gradientUnits="userSpaceOnUse" x1="67.13" y1="384.0027" x2="732.86" y2="384.0027">
	<stop  offset="0" style="stop-color:#FFF5E3"/>
	<stop  offset="0.5" style="stop-color:#FDE4D7"/>
	<stop  offset="0.5854" style="stop-color:#F5E0D8"/>
	<stop  offset="0.7207" style="stop-color:#DED4D9"/>
	<stop  offset="0.8879" style="stop-color:#B9C1DB"/>
	<stop  offset="1" style="stop-color:#9CB2DD"/>
</linearGradient>
<path class="st0" d="M370.5,369.2c12.4,12.7,32.8,13,45.5,0.6c12.7-12.4,13-32.8,0.6-45.5L370.5,369.2z M386.1,340.5l-18.7,26.2
	l0.1,0.1L386.1,340.5z M192.3,202.3l-19.7,25.4c0.3,0.3,0.7,0.5,1.1,0.8L192.3,202.3z M135.4,194.3l12,29.9L135.4,194.3z
	 M99.8,239.3L68,234.6c-0.2,1.6-0.4,3.2-0.4,4.8H99.8z M99.8,528.7H67.6c0,1.6,0.1,3.2,0.4,4.8L99.8,528.7z M135.4,573.7l12-29.9
	l0,0L135.4,573.7z M192.3,565.7l19.7,25.4l0,0L192.3,565.7z M386.2,414.6l-18.6-26.2c-0.4,0.3-0.8,0.6-1.2,0.9L386.2,414.6z
	 M416.6,430.7c12.4-12.7,12.2-33.1-0.6-45.5c-12.7-12.4-33.1-12.2-45.5,0.6L416.6,430.7z M361.4,346.8c0,17.8,14.4,32.2,32.2,32.2
	c17.8,0,32.2-14.4,32.2-32.2H361.4z M393.6,239.3l-31.8-4.8c-0.2,1.6-0.4,3.2-0.4,4.8H393.6z M429.2,194.3l12,29.9L429.2,194.3z
	 M486,202.3l-19.7,25.4c0.3,0.3,0.7,0.5,1,0.8L486,202.3z M679.9,340.5l-18.7,26.2c0.4,0.3,0.9,0.6,1.3,0.9L679.9,340.5z
	 M679.9,414.6l-17.3-27.1c-0.8,0.5-1.6,1.1-2.4,1.7L679.9,414.6z M486,565.7l19.7,25.4l0,0L486,565.7z M429.2,573.7l12-29.9l0,0
	L429.2,573.7z M393.5,528.7h-32.2c0,1.6,0.1,3.2,0.4,4.8L393.5,528.7z M425.7,408.3c0-17.8-14.4-32.2-32.2-32.2
	s-32.2,14.4-32.2,32.2H425.7z M425.7,346.8c0-17.8-14.4-32.2-32.2-32.2s-32.2,14.4-32.2,32.2H425.7z M361.4,408.3
	c0,17.8,14.4,32.2,32.2,32.2s32.2-14.4,32.2-32.2H361.4z M416.5,324.3c-3.6-3.7-7.6-7.1-11.8-10.1l-37.2,52.5c1.1,0.8,2,1.6,3,2.5
	L416.5,324.3z M404.8,314.3L211,176.1l-37.3,52.4l193.8,138.2L404.8,314.3z M212,176.9c-25.2-19.6-58.9-24.3-88.6-12.5l23.9,59.7
	c8.4-3.4,18-2,25.2,3.5L212,176.9z M123.5,164.4C93.8,176.3,72.7,203,68,234.6l63.6,9.5c1.3-9,7.3-16.6,15.8-19.9L123.5,164.4z
	 M67.6,239.3v289.3H132V239.3H67.6z M68,533.4c4.7,31.6,25.8,58.3,55.5,70.2l23.9-59.7c-8.4-3.4-14.4-11-15.8-19.9L68,533.4z
	 M123.5,603.6c29.6,11.9,63.4,7.1,88.6-12.5l-39.5-50.8c-7.2,5.6-16.8,6.9-25.2,3.5L123.5,603.6z M212.1,591.1L406,439.9l-39.6-50.7
	L172.5,540.3L212.1,591.1z M404.8,440.8c4.2-3,8.2-6.4,11.8-10.1l-46-44.9c-0.9,0.9-1.9,1.8-3,2.5L404.8,440.8z M425.7,346.8V239.3
	h-64.3v107.4H425.7z M425.4,244.1c1.3-9,7.3-16.6,15.8-19.9l-23.9-59.7c-29.6,11.9-50.7,38.6-55.5,70.1L425.4,244.1z M441.1,224.2
	c8.4-3.4,18-2,25.2,3.5l39.4-50.8c-25.2-19.6-58.9-24.3-88.5-12.4L441.1,224.2z M467.4,228.5l193.9,138.2l37.3-52.4L504.7,176.1
	L467.4,228.5z M662.6,367.6c3.4,2.2,5.5,5.9,5.5,10h64.3c0-26-13.2-50.1-35.1-64.1L662.6,367.6z M668,377.5c0,4-2.1,7.8-5.5,10
	l34.7,54.2c21.9-14,35.1-38.2,35.1-64.1H668z M660.1,389.2L466.3,540.3l39.6,50.7l193.9-151.1L660.1,389.2z M466.3,540.3
	c-7.2,5.6-16.8,6.9-25.2,3.5l-23.9,59.7c29.6,11.9,63.4,7.1,88.6-12.5L466.3,540.3z M441.1,543.9c-8.4-3.4-14.4-11-15.8-19.9
	l-63.6,9.5c4.7,31.6,25.8,58.3,55.5,70.2L441.1,543.9z M425.7,528.7V408.3h-64.3v120.4H425.7z M361.4,346.8v61.5h64.3v-61.5H361.4z"
	/>
</svg>
