<?xml version="1.0" encoding="utf-8"?>
<!-- Generator: Adobe Illustrator 25.3.1, SVG Export Plug-In . SVG Version: 6.00 Build 0)  -->
<svg version="1.1" id="Слой_1" xmlns="http://www.w3.org/2000/svg" xmlns:xlink="http://www.w3.org/1999/xlink" x="0px" y="0px"
	 viewBox="0 0 800 800" style="enable-background:new 0 0 800 800;" xml:space="preserve">
<style type="text/css">
	.st0{fill:url(#SVGID_1_);stroke:url(#SVGID_2_);stroke-miterlimit:10;}
</style>
<linearGradient id="SVGID_1_" gradientUnits="userSpaceOnUse" x1="67.63" y1="384.0027" x2="732.36" y2="384.0027" gradientTransform="matrix(-1 0 0 1 799.99 0)">
	<stop  offset="0" style="stop-color:#FFF5E3"/>
	<stop  offset="0.5" style="stop-color:#FDE4D7"/>
	<stop  offset="0.5854" style="stop-color:#F5E0D8"/>
	<stop  offset="0.7207" style="stop-color:#DED4D9"/>
	<stop  offset="0.8879" style="stop-color:#B9C1DB"/>
	<stop  offset="1" style="stop-color:#9CB2DD"/>
</linearGradient>
<linearGradient id="SVGID_2_" gradientUnits="userSpaceOnUse" x1="67.13" y1="384.0027" x2="732.86" y2="384.0027" gradientTransform="matrix(-1 0 0 1 799.99 0)">
	<stop  offset="0" style="stop-color:#FFF5E3"/>
	<stop  offset="0.5" style="stop-color:#FDE4D7"/>
	<stop  offset="0.5854" style="stop-color:#F5E0D8"/>
	<stop  offset="0.7207" style="stop-color:#DED4D9"/>
	<stop  offset="0.8879" style="stop-color:#B9C1DB"/>
	<stop  offset="1" style="stop-color:#9CB2DD"/>
</linearGradient>
<path class="st0" d="M383.4,324.3c-29.2,30.2,16.5,74.9,46,44.9L383.4,324.3z M432.4,366.7L432.4,366.7l-18.6-26.2L432.4,366.7z
	 M626.4,228.5c0.4-0.3,0.7-0.5,1.1-0.8l-19.7-25.4L626.4,228.5z M652.6,224.1l12-29.9L652.6,224.1z M732.4,239.3
	c0-1.6-0.1-3.2-0.4-4.8l-31.8,4.8H732.4z M732,533.4c0.2-1.6,0.4-3.2,0.4-4.8h-32.2L732,533.4z M652.6,543.9L652.6,543.9l12,29.9
	L652.6,543.9z M587.9,591.1L587.9,591.1l19.8-25.4L587.9,591.1z M433.6,389.2c-0.4-0.3-0.8-0.6-1.2-0.9l-18.6,26.2L433.6,389.2z
	 M429.4,385.8c-29.5-30-75.3,14.7-46,44.9L429.4,385.8z M374.3,346.8c0.7,42.3,63.6,42.3,64.3,0H374.3z M438.6,239.3
	c0-1.6-0.1-3.2-0.4-4.8l-31.8,4.8H438.6z M358.8,224.2l12-29.9L358.8,224.2z M332.6,228.5c0.4-0.3,0.7-0.5,1-0.8L314,202.3
	L332.6,228.5z M137.4,367.6c0.4-0.3,0.9-0.6,1.3-0.9l-18.7-26.2L137.4,367.6z M139.8,389.2c-0.8-0.6-1.6-1.2-2.4-1.7l-17.3,27.1
	L139.8,389.2z M294.2,591.1L294.2,591.1l19.8-25.4L294.2,591.1z M358.9,543.9L358.9,543.9l12,29.9L358.9,543.9z M438.3,533.4
	c0.2-1.6,0.4-3.2,0.4-4.8h-32.2L438.3,533.4z M438.6,408.3c-0.7-42.3-63.6-42.3-64.3,0H438.6z M438.6,346.8
	c-0.7-42.3-63.6-42.3-64.3,0H438.6z M374.3,408.3c0.7,42.3,63.6,42.3,64.3,0H374.3z M429.5,369.2c0.9-0.9,1.9-1.8,3-2.5l-37.2-52.5
	c-4.2,3-8.2,6.4-11.8,10.1L429.5,369.2z M432.5,366.7l193.8-138.2L589,176.1L395.2,314.3L432.5,366.7z M627.4,227.7
	c7.2-5.6,16.8-6.9,25.2-3.5l23.9-59.7c-29.6-11.9-63.4-7.1-88.6,12.5L627.4,227.7z M652.6,224.1c8.4,3.4,14.4,11,15.8,19.9l63.6-9.5
	c-4.7-31.6-25.8-58.3-55.5-70.2L652.6,224.1z M668,239.3v289.3h64.3V239.3H668z M668.4,523.9c-1.3,9-7.3,16.6-15.8,19.9l23.9,59.7
	c29.6-11.9,50.8-38.6,55.5-70.2L668.4,523.9z M652.6,543.9c-8.4,3.4-18,2-25.2-3.5L588,591.1c25.2,19.6,58.9,24.3,88.6,12.5
	L652.6,543.9z M627.5,540.3L433.6,389.2L394,439.9l193.9,151.1L627.5,540.3z M432.4,388.3c-1.1-0.8-2-1.6-3-2.5l-46,44.9
	c3.6,3.7,7.6,7.1,11.8,10.1L432.4,388.3z M438.6,346.8V239.3h-64.3v107.4H438.6z M438.2,234.6c-4.7-31.6-25.8-58.2-55.5-70.1
	l-23.9,59.7c8.4,3.4,14.4,11,15.8,19.9L438.2,234.6z M382.8,164.5c-29.6-11.9-63.3-7.1-88.5,12.4l39.4,50.8
	c7.2-5.6,16.8-6.9,25.2-3.5L382.8,164.5z M295.3,176.1L101.4,314.3l37.3,52.4l193.9-138.2L295.3,176.1z M102.7,313.4
	c-21.9,14-35.1,38.2-35.1,64.1H132c0-4,2.1-7.8,5.5-10L102.7,313.4z M67.6,377.5c0,26,13.2,50.1,35.1,64.1l34.7-54.2
	c-3.4-2.2-5.5-5.9-5.5-10H67.6z M100.3,439.9l193.9,151.1l39.6-50.7L139.8,389.2L100.3,439.9z M294.2,591.1
	c25.2,19.6,58.9,24.3,88.6,12.5l-23.9-59.7c-8.4,3.4-18,2-25.2-3.5L294.2,591.1z M382.8,603.6c29.6-11.9,50.8-38.6,55.5-70.2
	l-63.6-9.5c-1.3,9-7.3,16.6-15.8,19.9L382.8,603.6z M438.6,528.7V408.3h-64.3v120.4H438.6z M374.3,346.8v61.5h64.3v-61.5H374.3z"/>
</svg>
