<?xml version="1.0" encoding="utf-8"?>
<!-- Generator: Adobe Illustrator 25.3.1, SVG Export Plug-In . SVG Version: 6.00 Build 0)  -->
<svg version="1.1" id="Layer_1" xmlns="http://www.w3.org/2000/svg" xmlns:xlink="http://www.w3.org/1999/xlink" x="0px" y="0px"
	 viewBox="0 0 24 24" style="enable-background:new 0 0 24 24;" xml:space="preserve">
<style type="text/css">
	.st0{fill:url(#SVGID_1_);}
	.st1{fill:none;}
</style>
<linearGradient id="SVGID_1_" gradientUnits="userSpaceOnUse" x1="2.0481" y1="11.9861" x2="20.3713" y2="11.9861">
	<stop  offset="0" style="stop-color:#FFF5E3"/>
	<stop  offset="0.5" style="stop-color:#FDE4D7"/>
	<stop  offset="0.5854" style="stop-color:#F5E0D8"/>
	<stop  offset="0.7207" style="stop-color:#DED4D9"/>
	<stop  offset="0.8879" style="stop-color:#B9C1DB"/>
	<stop  offset="1" style="stop-color:#9CB2DD"/>
</linearGradient>
<path class="st0" d="M19.2,4.4L2.9,10.7c-1.1,0.4-1.1,1.1-0.2,1.3l4.1,1.3l1.6,4.8c0.2,0.5,0.1,0.7,0.6,0.7c0.4,0,0.6-0.2,0.8-0.4
	c0.1-0.1,1-1,2-2l4.2,3.1c0.8,0.4,1.3,0.2,1.5-0.7l2.8-13.1C20.6,4.6,19.9,4,19.2,4.4z M17.1,7.4l-7.8,7.1L9,17.8L7.4,13l9.2-5.8
	C17,6.9,17.4,7.1,17.1,7.4z"/>
<rect y="0" class="st1" width="24" height="24"/>
</svg>
